<?xml version="1.0" encoding="UTF-8" standalone="no"?>
<!-- Created with Inkscape (http://www.inkscape.org/) -->

<svg
   width="89.51413mm"
   height="22.669437mm"
   viewBox="0 0 89.51413 22.669437"
   version="1.1"
   id="svg1"
   inkscape:version="1.3.2 (091e20e, 2023-11-25)"
   sodipodi:docname="ai_usage.svg"
   xmlns:inkscape="http://www.inkscape.org/namespaces/inkscape"
   xmlns:sodipodi="http://sodipodi.sourceforge.net/DTD/sodipodi-0.dtd"
   xmlns="http://www.w3.org/2000/svg"
   xmlns:svg="http://www.w3.org/2000/svg">
  <sodipodi:namedview
     id="namedview1"
     pagecolor="#ffffff"
     bordercolor="#666666"
     borderopacity="1.0"
     inkscape:showpageshadow="2"
     inkscape:pageopacity="0.0"
     inkscape:pagecheckerboard="0"
     inkscape:deskcolor="#d1d1d1"
     inkscape:document-units="mm"
     inkscape:zoom="0.52913967"
     inkscape:cx="92.603149"
     inkscape:cy="105.83217"
     inkscape:window-width="1920"
     inkscape:window-height="1016"
     inkscape:window-x="0"
     inkscape:window-y="27"
     inkscape:window-maximized="1"
     inkscape:current-layer="layer1" />
  <defs
     id="defs1" />
  <g
     inkscape:label="Layer 1"
     inkscape:groupmode="layer"
     id="layer1"
     transform="translate(-121.70833,-84.137497)">
    <g
       id="g2"
       transform="translate(114.61534,-42.21321)">
      <path
         fill-rule="nonzero"
         fill="#ffffff"
         fill-opacity="1"
         d="m 8.69587,137.72385 c -0.0386,-0.113 -0.0606,-0.29215 -0.051,-0.45889 0.0289,-0.47956 0.34865,-0.74552 0.82684,-0.71658 0.53192,0.0331 0.77032,0.38172 0.74552,0.80753 -0.0123,0.1943 -0.0634,0.34451 -0.11578,0.44786 l 0.41893,0.13918 c 0.0579,-0.0923 0.12403,-0.30178 0.14195,-0.58153 0.0427,-0.72347 -0.37207,-1.33256 -1.18787,-1.38217 -0.68076,-0.0413 -1.22509,0.35415 -1.27469,1.1796 -0.018,0.28801 0.0261,0.51814 0.0661,0.61736 z m 0,0"
         id="path1324"
         style="fill:#214478;fill-opacity:1;stroke-width:0.352778" />
      <path
         fill-rule="nonzero"
         fill="#ffffff"
         fill-opacity="1"
         d="m 8.25902,138.49279 0.0978,0.52779 0.92604,-0.17088 0.0289,0.1571 c 0.0372,0.22049 -0.0208,0.33624 -0.30593,0.45751 -0.27838,0.11989 -0.45614,0.21359 -0.51954,0.26183 l 0.10062,0.5457 c 0.0827,-0.0634 0.37757,-0.19017 0.63249,-0.31282 0.20673,-0.0992 0.34315,-0.21773 0.37899,-0.39549 l 0.0109,-10e-4 c 0.11024,0.18879 0.35553,0.36381 0.6532,0.31006 0.21636,-0.04 0.3707,-0.14883 0.45611,-0.31281 0.10061,-0.19155 0.10886,-0.44649 0.0441,-0.79513 -0.0523,-0.28663 -0.11987,-0.53468 -0.18051,-0.70005 z m 2.05465,0.16674 c 0.018,0.0358 0.0372,0.10749 0.062,0.23703 0.0455,0.24529 -0.04,0.41203 -0.25358,0.45199 -0.20531,0.0372 -0.36791,-0.0951 -0.41613,-0.36104 l -0.0386,-0.20947 z m 0,0"
         id="path1326"
         style="fill:#214478;fill-opacity:1;stroke-width:0.352778" />
      <path
         fill-rule="nonzero"
         fill="#ffffff"
         fill-opacity="1"
         d="m 10.71743,141.61267 -0.35553,-0.80615 0.45614,-0.19982 0.3762,0.85439 0.40651,-0.17915 -0.5939,-1.3491 -2.19248,0.96463 0.61461,1.39595 0.4065,-0.17915 -0.39687,-0.90123 0.52091,-0.22875 0.35415,0.80615 z m 0,0"
         id="path1328"
         style="fill:#214478;fill-opacity:1;stroke-width:0.352778" />
      <path
         fill-rule="nonzero"
         fill="#ffffff"
         fill-opacity="1"
         d="m 11.03715,143.55157 -0.38171,0.51677 0.34999,0.46991 1.47313,-2.03123 -0.42442,-0.56913 -2.35508,0.84887 0.33348,0.44648 0.59394,-0.23013 z m -0.0386,-0.72898 0.49194,-0.19017 c 0.13508,-0.051 0.30043,-0.13091 0.43547,-0.18742 l 0.006,0.006 c -0.0937,0.113 -0.20945,0.25356 -0.29902,0.37344 l -0.31693,0.42306 z m 0,0"
         id="path1330"
         style="fill:#214478;fill-opacity:1;stroke-width:0.352778" />
      <path
         fill-rule="nonzero"
         fill="#ffffff"
         fill-opacity="1"
         d="m 11.6683,145.07981 0.41201,0.34865 1.2499,-1.48415 0.50023,0.42168 0.29352,-0.34727 -1.40836,-1.18649 -0.29214,0.34727 0.4947,0.41755 z m 0,0"
         id="path1332"
         style="fill:#214478;fill-opacity:1;stroke-width:0.352778" />
      <path
         fill-rule="nonzero"
         fill="#ffffff"
         fill-opacity="1"
         d="m 15.06654,145.55248 -0.78274,-0.40376 0.22736,-0.44235 0.83097,0.42856 0.20394,-0.39549 -1.31187,-0.67524 -1.09693,2.12907 1.35601,0.69866 0.20256,-0.39549 -0.87506,-0.45062 0.26045,-0.50574 0.78412,0.40376 z m 0,0"
         id="path1334"
         style="fill:#214478;fill-opacity:1;stroke-width:0.352778" />
      <path
         fill-rule="nonzero"
         fill="#ffffff"
         fill-opacity="1"
         d="m 15.17679,147.15376 c 0.124,0.0468 0.31831,0.11025 0.59114,0.17364 0.45752,0.10472 0.85715,0.0951 1.1507,-0.0537 0.26458,-0.13918 0.49882,-0.40928 0.60081,-0.85576 0.0951,-0.41341 0.01,-0.73587 -0.19156,-0.97152 -0.18327,-0.21635 -0.45473,-0.36656 -0.90261,-0.46991 -0.26321,-0.0606 -0.5195,-0.0978 -0.72069,-0.11162 z m 0.96738,-1.79283 c 0.0482,0 0.12951,0.007 0.24391,0.0331 0.45749,0.10611 0.68213,0.42719 0.57048,0.91226 -0.12813,0.55811 -0.50433,0.74828 -0.9839,0.6339 -0.0634,-0.0138 -0.13917,-0.0317 -0.18189,-0.0524 z m 0,0"
         id="path1336"
         style="fill:#214478;fill-opacity:1;stroke-width:0.352778" />
      <path
         fill-rule="nonzero"
         fill="#ffffff"
         fill-opacity="1"
         d="m 20.63517,146.9567 c -0.10195,0.0606 -0.27421,0.11576 -0.43959,0.13781 -0.47541,0.0634 -0.79788,-0.19844 -0.86127,-0.67387 -0.0703,-0.52778 0.22599,-0.82957 0.64907,-0.88607 0.19428,-0.0262 0.3514,-0.004 0.46302,0.0275 l 0.0565,-0.43684 c -0.10333,-0.04 -0.32106,-0.0648 -0.59944,-0.0276 -0.71797,0.0951 -1.2361,0.62012 -1.1286,1.43041 0.0909,0.67523 0.58152,1.13412 1.40282,1.02388 0.28525,-0.0386 0.50299,-0.12403 0.59256,-0.18328 z m 0,0"
         id="path1338"
         style="fill:#214478;fill-opacity:1;stroke-width:0.352778" />
      <path
         fill-rule="nonzero"
         fill="#ffffff"
         fill-opacity="1"
         d="m 21.42205,144.62231 c -0.65046,0.26871 -0.87232,0.9412 -0.59807,1.60403 0.26183,0.6339 0.85439,0.97014 1.50756,0.70005 0.65045,-0.26872 0.90675,-0.88608 0.60498,-1.61507 -0.25358,-0.6146 -0.8351,-0.97014 -1.51447,-0.68901 z m 0.15434,0.40101 c 0.34452,-0.14194 0.67246,0.12126 0.83784,0.52227 0.17914,0.42995 0.11713,0.83234 -0.22048,0.97152 -0.33486,0.13918 -0.66421,-0.0827 -0.84473,-0.51952 -0.17776,-0.42995 -0.11441,-0.83234 0.22737,-0.97427 z m 0,0"
         id="path1340"
         style="fill:#214478;fill-opacity:1;stroke-width:0.352778" />
      <path
         fill-rule="nonzero"
         fill="#ffffff"
         fill-opacity="1"
         d="m 24.40549,145.74403 -0.44785,-0.565 c -0.24254,-0.30592 -0.4589,-0.56637 -0.67113,-0.80477 l 0.0109,-0.01 c 0.2632,0.1502 0.58152,0.29214 0.85164,0.40376 l 0.97564,0.40652 0.4451,-0.35415 -1.48967,-1.87551 -0.38859,0.30868 0.43268,0.5457 c 0.22465,0.28388 0.4341,0.53054 0.65596,0.7593 l -0.006,0.004 c -0.25495,-0.14332 -0.54846,-0.29077 -0.81717,-0.39963 l -0.9343,-0.37896 -0.49611,0.39274 1.48968,1.87688 z m 0,0"
         id="path1342"
         style="fill:#214478;fill-opacity:1;stroke-width:0.352778" />
      <path
         fill-rule="nonzero"
         fill="#ffffff"
         fill-opacity="1"
         d="m 26.41191,143.83407 0.3266,-0.42995 -1.5434,-1.17409 0.3955,-0.5209 -0.36241,-0.2756 -1.11347,1.46623 0.36103,0.27423 0.39137,-0.51401 z m 0,0"
         id="path1344"
         style="fill:#214478;fill-opacity:1;stroke-width:0.352778" />
      <path
         fill-rule="nonzero"
         fill="#ffffff"
         fill-opacity="1"
         d="m 26.71234,140.41516 -0.36382,0.80339 -0.45336,-0.20533 0.38583,-0.85162 -0.40375,-0.18328 -0.60911,1.34358 2.18144,0.98806 0.62978,-1.38907 -0.40517,-0.18327 -0.4065,0.8971 -0.51813,-0.23427 0.36379,-0.80339 z m 0,0"
         id="path1346"
         style="fill:#214478;fill-opacity:1;stroke-width:0.352778" />
      <path
         fill-rule="nonzero"
         fill="#ffffff"
         fill-opacity="1"
         d="m 28.40458,139.73716 -0.7111,-0.12816 c -0.38446,-0.0689 -0.71794,-0.12126 -1.03491,-0.16123 v -0.0138 c 0.2963,-0.062 0.62978,-0.16537 0.90678,-0.25907 l 0.99907,-0.34038 0.10058,-0.55948 -2.35642,-0.42444 -0.0882,0.49058 0.68488,0.12265 c 0.35691,0.0648 0.67659,0.11024 0.99356,0.13505 v 0.007 c -0.28525,0.0606 -0.60222,0.14469 -0.87644,0.23978 l -0.95222,0.33486 -0.11161,0.62287 2.35782,0.42306 z m 0,0"
         id="path1348"
         style="fill:#214478;fill-opacity:1;stroke-width:0.352778" />
      <path
         fill-rule="nonzero"
         fill="#ffffff"
         fill-opacity="1"
         d="m 28.64711,136.97695 -0.0386,-0.53881 -1.93478,0.13918 -0.0469,-0.65182 -0.45339,0.0317 0.1323,1.83693 0.45339,-0.0331 -0.0469,-0.64492 z m 0,0"
         id="path1350"
         style="fill:#214478;fill-opacity:1;stroke-width:0.352778" />
      <path
         fill-rule="nonzero"
         fill="#ffffff"
         fill-opacity="1"
         d="m 11.44228,130.49742 1.44007,1.91271 0.43131,-0.32521 -0.60219,-0.79927 0.71243,-0.53743 0.60219,0.80064 0.43135,-0.32522 -1.44142,-1.91272 -0.43134,0.32522 0.55397,0.73449 -0.71244,0.53744 -0.55259,-0.73587 z m 0,0"
         id="path1352"
         style="fill:#214478;fill-opacity:1;stroke-width:0.352778" />
      <path
         fill-rule="nonzero"
         fill="#ffffff"
         fill-opacity="1"
         d="m 14.10466,128.73215 0.43684,1.26228 c 0.24942,0.71934 0.69176,0.92328 1.26228,0.72623 0.59118,-0.20533 0.82959,-0.65871 0.58705,-1.35737 l -0.43822,-1.26917 -0.51124,0.17639 0.44923,1.29948 c 0.14054,0.40239 0.0579,0.64217 -0.21086,0.7345 -0.25904,0.0896 -0.47815,-0.0565 -0.61457,-0.44924 l -0.44927,-1.29949 z m 0,0"
         id="path1354"
         style="fill:#214478;fill-opacity:1;stroke-width:0.352778" />
      <path
         fill-rule="nonzero"
         fill="#ffffff"
         fill-opacity="1"
         d="m 19.27366,130.25764 0.52642,0.007 -0.0978,-2.39641 -0.71106,-0.01 -0.26183,0.79375 c -0.0854,0.26458 -0.17088,0.58015 -0.2384,0.85576 h -0.0138 c -0.0496,-0.28112 -0.11712,-0.58016 -0.19153,-0.85852 l -0.22464,-0.80202 -0.72069,-0.01 -0.18331,2.39365 0.50024,0.006 0.0579,-0.9095 c 0.018,-0.29766 0.0372,-0.66697 0.0524,-0.98943 h 0.007 c 0.0565,0.31281 0.12954,0.65456 0.20397,0.93982 l 0.24529,0.92742 0.42168,0.005 0.30317,-0.93155 c 0.0965,-0.27837 0.19982,-0.61874 0.28251,-0.92329 h 0.007 c -0.004,0.34864 0,0.69591 0.008,0.98392 z m 0,0"
         id="path1356"
         style="fill:#214478;fill-opacity:1;stroke-width:0.352778" />
      <path
         fill-rule="nonzero"
         fill="#ffffff"
         fill-opacity="1"
         d="m 21.58602,130.25901 -0.0399,0.64079 0.54981,0.20257 0.12816,-2.50527 -0.66696,-0.24529 -1.51172,1.9954 0.52366,0.19292 0.37345,-0.51814 z m -0.43131,-0.5898 0.30868,-0.42857 c 0.0854,-0.11575 0.18052,-0.27423 0.26321,-0.39549 l 0.007,0.003 c -0.0152,0.14607 -0.0372,0.32797 -0.0455,0.47542 l -0.0358,0.52917 z m 0,0"
         id="path1358"
         style="fill:#214478;fill-opacity:1;stroke-width:0.352778" />
      <path
         fill-rule="nonzero"
         fill="#ffffff"
         fill-opacity="1"
         d="m 22.77251,131.58055 0.44098,-0.57051 c 0.23978,-0.30868 0.44097,-0.57877 0.62286,-0.84335 l 0.0109,0.01 c -0.0813,0.29076 -0.14471,0.63389 -0.18881,0.9219 l -0.1626,1.04456 0.44923,0.34864 1.46763,-1.89342 -0.39275,-0.30455 -0.42718,0.54984 c -0.22186,0.28663 -0.41067,0.54846 -0.58018,0.81855 l -0.006,-0.004 c 0.0786,-0.28113 0.15159,-0.60221 0.19431,-0.88884 l 0.14471,-0.9977 -0.50024,-0.38723 -1.46763,1.89205 z m 0,0"
         id="path1360"
         style="fill:#214478;fill-opacity:1;stroke-width:0.352778" />
      <path
         fill="none"
         stroke-width="0.345838"
         stroke-linecap="square"
         stroke-linejoin="round"
         stroke="#ffffff"
         stroke-opacity="1"
         stroke-miterlimit="4"
         d="m 7.39635,139.3775 c 0.93433,6.0923 6.63114,10.27465 12.72344,9.33896 6.09229,-0.93431 10.27327,-6.62974 9.33898,-12.72343 -0.93432,-6.0923 -6.63114,-10.27327 -12.72343,-9.33896 -6.09233,0.93431 -10.27327,6.63112 -9.33899,12.72343 z m 0,0"
         id="path1362"
         style="stroke:#214478;stroke-opacity:1" />
      <path
         fill="none"
         stroke-width="0.319332"
         stroke-linecap="square"
         stroke-linejoin="round"
         stroke="#ffffff"
         stroke-opacity="1"
         stroke-miterlimit="4"
         d="m 11.9053,138.68572 c 0.5526,3.60219 3.92051,6.0744 7.52272,5.5218 3.60218,-0.55259 6.07438,-3.92052 5.52181,-7.52271 -0.5526,-3.60219 -3.92052,-6.07302 -7.52272,-5.5218 -3.60218,0.55259 -6.07438,3.92052 -5.52181,7.52271 z m 0,0"
         id="path1364"
         style="stroke:#214478;stroke-opacity:1" />
      <path
         fill-rule="nonzero"
         fill="#ffffff"
         fill-opacity="1"
         stroke-width="0.33312"
         stroke-linecap="square"
         stroke-linejoin="round"
         stroke="#ffffff"
         stroke-opacity="1"
         stroke-miterlimit="4"
         d="m 11.35962,133.79644 c 0,0.48231 -0.39137,0.87367 -0.87369,0.87367 -0.48369,0 -0.87369,-0.39136 -0.87369,-0.87367 0,-0.48232 0.39,-0.87368 0.87369,-0.87368 0.48232,0 0.87369,0.39136 0.87369,0.87368 z m 0,0"
         id="path1366"
         style="fill:#214478;fill-opacity:1;stroke:#214478;stroke-opacity:1" />
      <path
         fill-rule="nonzero"
         fill="#ffffff"
         fill-opacity="1"
         stroke-width="0.33312"
         stroke-linecap="square"
         stroke-linejoin="round"
         stroke="#ffffff"
         stroke-opacity="1"
         stroke-miterlimit="4"
         d="m 27.13951,133.66277 c 0,0.48231 -0.39137,0.87367 -0.87365,0.87367 -0.48369,0 -0.87369,-0.39136 -0.87369,-0.87367 0,-0.48369 0.39,-0.87368 0.87369,-0.87368 0.48228,0 0.87365,0.38999 0.87365,0.87368 z m 0,0"
         id="path1368"
         style="fill:#214478;fill-opacity:1;stroke:#214478;stroke-opacity:1" />
      <g
         fill="#ffffff"
         fill-opacity="1"
         id="g1372"
         transform="matrix(0.35277778,0,0,0.35277778,-393.0009,-100.72775)"
         style="fill:#214478;fill-opacity:1">
        <g
           id="use1370"
           transform="translate(1153.8861,687.91632)"
           style="fill:#214478;fill-opacity:1">
          <path
             d="M 2.40625,-24.203125 V 0 H 7.859375 V -10.125 H 16.875 V 0 h 5.453125 V -24.203125 H 16.875 v 9.296875 H 7.859375 v -9.296875 z m 0,0"
             id="path3899"
             style="fill:#214478;fill-opacity:1" />
        </g>
      </g>
    </g>
    <text
       xml:space="preserve"
       style="font-size:9.79959px;line-height:1.25;font-family:'Linux Libertine O';-inkscape-font-specification:'Linux Libertine O';letter-spacing:0px;word-spacing:0px;fill:#214478;fill-opacity:1;stroke-width:0.264583"
       x="150.57295"
       y="97.530121"
       id="text1"><tspan
         sodipodi:role="line"
         id="tspan1"
         style="font-weight:bold;fill:#214478;fill-opacity:1;stroke-width:0.264583"
         x="150.57295"
         y="97.530121">Zero AI usage</tspan></text>
  </g>
</svg>
